# xmcd
#
# Track frame offsets:
#	150
#	13524
#	27139
#	38953
#	52516
#	65674
#	79703
#	91061
#	109061
#	124532
#	137318
#	155081
#	169107
#	182460
#	195657
#
# Disc length: 2900 seconds
#
# Revision: 0
# Processed by: cddbd v1.5.2PL0 Copyright (c) Steve Scherf et al.
# Submitted via: audiograbber 1.83.01
#
DISCID=ae0b520f
DTITLE=Truck Stop  - Arizona  1998
DYEAR=1998
DGENRE=Pop
TTITLE0=Arizona - Arizona
TTITLE1=Tausend Meilen
TTITLE2=Immer in der Küche
TTITLE3=Es ist kalt
TTITLE4=Der Trabbi und der Truck
TTITLE5=Papa werden ist so leicht
TTITLE6=Kein Bier, kein Wein, kein Nikotin
TTITLE7=Kleine Cowboys werden groß
TTITLE8=Square Dance - Darling
TTITLE9=Lass doch mal den Cowboy ran
TTITLE10=Morgen werden wir uns nicht mehr sehn
TTITLE11=Du brauchstn Ofen
TTITLE12=Kleine Dampflok
TTITLE13=Ohne dich steh ich im Regen
TTITLE14=Fluss im Abendwind
EXTD=
EXTT0=
EXTT1=
EXTT2=
EXTT3=
EXTT4=
EXTT5=
EXTT6=
EXTT7=
EXTT8=
EXTT9=
EXTT10=
EXTT11=
EXTT12=
EXTT13=
EXTT14=
PLAYORDER=
